<?xml version="1.0" encoding="UTF-8"?>
<svg version="1.1" xmlns="http://www.w3.org/2000/svg" width="64" height="64">
<path d="M0 0 C3.86139209 1.78768152 5.56867772 3.35997339 7.9375 6.875 C11.30850101 16.24558018 7.99136724 28.29957489 4 37 C1.31300268 41.45911888 -1.58373502 45.16220473 -6 48 C-6.99 48 -7.98 48 -9 48 C-8.37520761 45.29851671 -7.59669551 42.98297128 -6.5625 40.375 C-4.76274702 35.69917117 -3.85752602 30.92320821 -3 26 C-4.03125 25.938125 -5.0625 25.87625 -6.125 25.8125 C-10.92952697 24.80509918 -12.53529968 23.38220746 -16 20 C-17.85506839 16.28986322 -17.45334699 12.04907177 -17 8 C-13.19411999 0.38823998 -8.07325531 -1.10726939 0 0 Z M-13 6 C-15.35062814 9.205402 -15.39807915 12.09882438 -15 16 C-13.33237678 19.49406769 -12.25993978 20.82670681 -9 23 C-6.71351152 23.24107326 -6.71351152 23.24107326 -4.3125 23.125 C-3.50425781 23.10695313 -2.69601563 23.08890625 -1.86328125 23.0703125 C-1.24839844 23.04710938 -0.63351563 23.02390625 0 23 C-0.22816406 24.04800781 -0.45632812 25.09601562 -0.69140625 26.17578125 C-0.98217791 27.55460172 -1.27252014 28.93351279 -1.5625 30.3125 C-1.78969727 31.34793945 -1.78969727 31.34793945 -2.02148438 32.40429688 C-2.71761569 35.75544066 -3.10155309 37.69534072 -2 41 C4.95394876 31.16002508 7.55400955 21.08840124 6 9 C4.75274037 5.76058956 3.94033444 5.14399386 1 3 C-4.71913751 0.8744068 -8.38906723 1.9379878 -13 6 Z " fill="#D1968D" transform="translate(52,8)"/>
<path d="M0 0 C4.06249609 2.06817983 6.41658032 3.72978223 8 8 C9.12979587 19.66579917 8.06693121 30.74261274 1 40.5 C0.02067279 41.6840732 -0.97726388 42.85321233 -2 44 C-2.721875 44.825 -3.44375 45.65 -4.1875 46.5 C-6 48 -6 48 -9 48 C-8.44802063 44.35693615 -7.27497653 41.39112446 -5.765625 38.046875 C-4.31394804 34.16586108 -3.69658579 30.07297811 -3 26 C-4.03125 25.938125 -5.0625 25.87625 -6.125 25.8125 C-10.49779165 24.89562433 -13.32978489 23.56592017 -16 20 C-18.02284129 15.42289301 -18.26966019 12.02807946 -17 7.1875 C-12.81660186 0.52020921 -7.54869392 -1.35039247 0 0 Z M-13.8125 6.6875 C-15.56768283 10.10548763 -15.62696409 13.28984778 -15 17 C-13.79497184 20.04860113 -13.79497184 20.04860113 -11 22 C-7.65386113 23.00174377 -4.47714838 23.49672852 -1 24 C-1.66 29.61 -2.32 35.22 -3 41 C0.03218422 37.20976972 1.56305376 35.24345141 3.1875 31 C3.51105469 30.175 3.83460937 29.35 4.16796875 28.5 C6.42316002 21.72383845 7.48583834 13.75369686 4.8125 7 C2.04655691 3.94792486 -0.38643174 2.24203524 -4.5 1.625 C-8.45201735 2.2178026 -10.92763798 4.00159398 -13.8125 6.6875 Z " fill="#D1958C" transform="translate(21,8)"/>
</svg>
