<?xml version="1.0" encoding="UTF-8"?>
<svg version="1.1" xmlns="http://www.w3.org/2000/svg" width="451" height="356">
<path d="M0 0 C0.99 0.495 0.99 0.495 2 1 C2.51489258 2.97094727 2.51489258 2.97094727 2.89453125 5.56640625 C3.0426123 6.5188623 3.19069336 7.47131836 3.34326172 8.45263672 C3.49811035 9.4788916 3.65295898 10.50514648 3.8125 11.5625 C5.30034839 20.70777057 7.24739437 29.3331876 10.32470703 38.06542969 C11.03498795 40.10023301 11.7046809 42.14575201 12.37109375 44.1953125 C15.71331794 54.28850841 20.00811157 63.62435885 25 73 C25.52722656 74.00933594 26.05445313 75.01867187 26.59765625 76.05859375 C29.6149219 81.73105317 32.93536082 87.13669313 36.484375 92.4921875 C37.96156326 94.93640107 39.02108013 97.32236623 40 100 C40.66 100 41.32 100 42 100 C45 104.38461538 45 104.38461538 45 107 C45.99 107.33 46.98 107.66 48 108 C48 108.66 48 109.32 48 110 C48.66 110 49.32 110 50 110 C51.375 111.43359375 51.375 111.43359375 53 113.4375 C57.45425334 118.68883025 62.7711235 124.88556175 69 128 C69 128.66 69 129.32 69 130 C69.73089844 130.28101563 70.46179688 130.56203125 71.21484375 130.8515625 C73.76162221 131.90170678 76.13195491 133.0836444 78.5625 134.375 C84.18645403 137.2248063 89.99620395 139.12176326 96 141 C98.00116042 141.66317526 100.00148311 142.32890039 102 143 C101.67 143.66 101.34 144.32 101 145 C98.58251842 145.66149993 96.1973041 146.22519763 93.75 146.75 C85.97045945 148.5587106 79.1081617 151.32145717 72 155 C71.07832031 155.46277344 70.15664062 155.92554688 69.20703125 156.40234375 C54.79230821 163.91131203 40.15511059 174.26733412 31 188 C30.34 188 29.68 188 29 188 C28.60361328 189.09634766 28.60361328 189.09634766 28.19921875 190.21484375 C26.9974531 193.00591512 25.61490427 195.12492351 23.8125 197.5625 C17.4311912 206.50429237 12.28287865 215.89647322 8 226 C7.72655762 226.63599121 7.45311523 227.27198242 7.17138672 227.92724609 C3.21450161 237.1527745 -0.29003492 246.32155327 -3 256 C-3.99 256 -4.98 256 -6 256 C-6.63615234 254.42025391 -6.63615234 254.42025391 -7.28515625 252.80859375 C-12.79130061 239.22423069 -18.85440095 226.06404553 -25.625 213.0625 C-26.08036133 212.18625977 -26.53572266 211.31001953 -27.00488281 210.40722656 C-29.50503334 205.65530885 -32.13292148 201.07174865 -35.09521484 196.59155273 C-36 195 -36 195 -36 193 C-36.66 193 -37.32 193 -38 193 C-39.31476977 191.36246017 -40.55210408 189.66237727 -41.75 187.9375 C-44.20573125 184.46004115 -46.66977067 181.11813867 -49.5 177.9375 C-52 175 -52 175 -52 173 C-52.82951172 172.65195312 -52.82951172 172.65195312 -53.67578125 172.296875 C-56.61728152 170.65556728 -58.74901859 168.57236325 -61.1875 166.25 C-65.36680409 162.36279781 -69.53359921 159.09884741 -74.41796875 156.15625 C-75.20107422 155.58390625 -75.20107422 155.58390625 -76 155 C-76 154.34 -76 153.68 -76 153 C-76.72574219 152.72414062 -77.45148438 152.44828125 -78.19921875 152.1640625 C-80.86835006 151.05471643 -83.29647868 149.79348131 -85.8125 148.375 C-93.09072049 144.34811571 -100.54610897 140.68734397 -108 137 C-108.66 136.67 -109.32 136.34 -110 136 C-110 135.01 -110 134.02 -110 133 C-109.030625 132.79246094 -108.06125 132.58492187 -107.0625 132.37109375 C-88.81144168 128.26167525 -74.35325932 121.098254 -60.55859375 108.25 C-59 107 -59 107 -57 107 C-56.75378906 106.43539062 -56.50757813 105.87078125 -56.25390625 105.2890625 C-54.78593095 102.60920728 -53.0064331 100.62041197 -50.9375 98.375 C-48.14219542 95.41210833 -48.14219542 95.41210833 -46 92 C-45.34 92 -44.68 92 -44 92 C-43.73703125 91.44699219 -43.4740625 90.89398438 -43.203125 90.32421875 C-41.85385508 87.71767459 -40.33341101 85.28390503 -38.75 82.8125 C-38.12609375 81.83539063 -37.5021875 80.85828125 -36.859375 79.8515625 C-35.28061228 77.43035077 -33.65187583 75.05874111 -32 72.6875 C-28.41845727 67.3484363 -25.68650533 61.5913712 -22.89111328 55.81738281 C-21.47002221 52.91913572 -19.97512252 50.05854383 -18.5 47.1875 C-14.85335736 39.90240943 -11.7664616 32.42806887 -8.75048828 24.86376953 C-8.11091645 23.27545093 -7.44666767 21.69710567 -6.77734375 20.12109375 C-4.46498452 14.64352796 -2.93531773 9.1688515 -1.61328125 3.37109375 C-1 1 -1 1 0 0 Z " fill="#CF9389" transform="translate(133,14)"/>
<path d="M0 0 C0.99 0 1.98 0 3 0 C3.09796875 0.76441406 3.1959375 1.52882813 3.296875 2.31640625 C6.19060947 23.04652126 12.87944119 41.97743269 23.00537109 60.19287109 C27 67.45066274 27 67.45066274 27 70 C27.66 70 28.32 70 29 70 C30.65625 72.265625 30.65625 72.265625 32.5 75.25 C33.1084375 76.22453125 33.716875 77.1990625 34.34375 78.203125 C36 81 36 81 37.03125 83.296875 C37.95077961 85.3548531 37.95077961 85.3548531 41 86 C42.69088222 87.97956942 44.35830472 89.97945196 46 92 C46.66 92.33 47.32 92.66 48 93 C48 93.66 48 94.32 48 95 C48.57492187 95.26296875 49.14984375 95.5259375 49.7421875 95.796875 C52.12489951 97.06655545 54.01391793 98.57021426 56.125 100.25 C63.27558606 105.38679149 71.6556539 107.51851145 80 110 C77.15456079 113.10078572 74.99952818 113.67760258 70.875 114.625 C58.15075557 118.08567868 46.92552499 124.49055356 37.1015625 133.25 C35 135 35 135 32 136 C32 136.66 32 137.32 32 138 C31.34 138 30.68 138 30 138 C29.74734375 138.56460938 29.4946875 139.12921875 29.234375 139.7109375 C27.83164048 142.31221102 26.15103951 144.36291035 24.25 146.625 C20.29402592 151.52016217 17.01008099 156.47774615 14 162 C13.37222656 163.14984375 12.74445313 164.2996875 12.09765625 165.484375 C6.56938482 175.92874468 2.65674391 186.78044481 -1 198 C-1.99 198 -2.98 198 -4 198 C-5.31626692 194.38026598 -6 191.90432869 -6 188 C-6.66 188 -7.32 188 -8 188 C-8.16113281 187.43796875 -8.32226562 186.8759375 -8.48828125 186.296875 C-13.51630726 170.76003634 -22.47998841 156.38757066 -33 144 C-34.12535156 142.64841797 -34.12535156 142.64841797 -35.2734375 141.26953125 C-40.57152485 135.1256089 -46.65219957 128.67390022 -54 125 C-54 124.34 -54 123.68 -54 123 C-54.73500732 122.72526855 -55.47001465 122.45053711 -56.22729492 122.16748047 C-58.82341577 121.07435289 -61.00613147 119.85088807 -63.36328125 118.3203125 C-64.16830078 117.80339844 -64.97332031 117.28648437 -65.80273438 116.75390625 C-66.63095703 116.21636719 -67.45917969 115.67882812 -68.3125 115.125 C-74.07743355 111.3848458 -79.79189828 107.95759967 -86 105 C-86 104.01 -86 103.02 -86 102 C-85.05640625 101.84144531 -84.1128125 101.68289062 -83.140625 101.51953125 C-71.12598631 99.33614811 -61.0535652 95.99026317 -51.15625 88.55078125 C-49.16423261 87.11811657 -47.22322406 86.02571474 -45 85 C-45 84.34 -45 83.68 -45 83 C-44.34 83 -43.68 83 -43 83 C-42.7421875 82.42894531 -42.484375 81.85789062 -42.21875 81.26953125 C-40.88228071 78.78078555 -39.32032738 76.84727367 -37.5 74.6875 C-29.79414088 65.1850107 -23.18684224 55.08098114 -18 44 C-16.85517431 41.77031567 -15.7092547 39.54119283 -14.5625 37.3125 C-10.89268457 30.05545988 -7.93274858 22.57767984 -5 15 C-3.92618088 12.38042853 -2.848656 9.76259038 -1.76171875 7.1484375 C-0.92507683 4.78867824 -0.43634764 2.46255601 0 0 Z " fill="#CF9389" transform="translate(343,121)"/>
<path d="M0 0 C23.27670221 2.70659328 43.25742618 12.71074496 60 29 C60.91652344 29.84111328 60.91652344 29.84111328 61.8515625 30.69921875 C82.59527954 50.25893368 97.76299967 83.87855963 101 112 C100.5625 114.37109375 100.5625 114.37109375 100 116 C100 115.34 100 114.68 100 114 C99.34 114 98.68 114 98 114 C97.58657349 113.02897339 97.58657349 113.02897339 97.16479492 112.03833008 C92.15657688 100.32977498 87.05396261 88.71391306 81.125 77.4375 C80.46600708 76.1832019 80.46600708 76.1832019 79.79370117 74.90356445 C77.35503112 70.33782961 74.76187431 65.93650456 71.91357422 61.61352539 C71 60 71 60 71 58 C70.34 58 69.68 58 69 58 C67.68523023 56.36246017 66.44789592 54.66237727 65.25 52.9375 C62.79426875 49.46004115 60.33022933 46.11813867 57.5 42.9375 C55 40 55 40 55 38 C54.44699219 37.76796875 53.89398438 37.5359375 53.32421875 37.296875 C50.38271848 35.65556728 48.25098141 33.57236325 45.8125 31.25 C41.63319591 27.36279781 37.46640079 24.09884741 32.58203125 21.15625 C32.05996094 20.7746875 31.53789063 20.393125 31 20 C31 19.34 31 18.68 31 18 C30.278125 17.72542969 29.55625 17.45085937 28.8125 17.16796875 C26.08525929 16.03540629 23.5791687 14.74755575 21 13.3125 C17.83807695 11.55731006 14.67157236 9.82870956 11.46484375 8.15625 C10.30082031 7.5478125 9.13679688 6.939375 7.9375 6.3125 C6.85339844 5.75175781 5.76929688 5.19101563 4.65234375 4.61328125 C2 3 2 3 0 0 Z " fill="#0B0909" transform="translate(26,149)"/>
<path d="M0 0 C0.66 0 1.32 0 2 0 C-2.74343362 36.39358556 -24.1588223 73.43196971 -53 96 C-55.87458886 98.04524538 -58.79808572 100.00584859 -61.75 101.9375 C-62.4713916 102.4106665 -63.1927832 102.88383301 -63.93603516 103.37133789 C-67.85742401 105.86722071 -71.47408822 107.75466264 -76 109 C-74.72967411 105.18902234 -73.48097549 104.85992125 -70.0625 102.875 C-64.79621577 99.66435413 -60.44082913 95.98249064 -55.99609375 91.72265625 C-54 90 -54 90 -52 90 C-51.75378906 89.43539062 -51.50757812 88.87078125 -51.25390625 88.2890625 C-49.78593095 85.60920728 -48.0064331 83.62041197 -45.9375 81.375 C-43.14219542 78.41210833 -43.14219542 78.41210833 -41 75 C-40.34 75 -39.68 75 -39 75 C-38.73703125 74.44699219 -38.4740625 73.89398438 -38.203125 73.32421875 C-36.85385508 70.71767459 -35.33341101 68.28390503 -33.75 65.8125 C-33.12609375 64.83539063 -32.5021875 63.85828125 -31.859375 62.8515625 C-30.28061228 60.43035077 -28.65187583 58.05874111 -27 55.6875 C-23.41845727 50.3484363 -20.68650533 44.5913712 -17.89111328 38.81738281 C-16.47002221 35.91913572 -14.97512252 33.05854383 -13.5 30.1875 C-10.49252129 24.19286338 -7.88075161 18.08854057 -5.39648438 11.86010742 C-3.77417971 7.8009579 -2.01574235 3.88576839 0 0 Z " fill="#0B0808" transform="translate(128,31)"/>
<path d="M0 0 C0 0.33 0 0.66 0 1 C-1.98 1 -3.96 1 -6 1 C-6 1.66 -6 2.32 -6 3 C-5.195625 3.09474609 -5.195625 3.09474609 -4.375 3.19140625 C16.59579664 6.46809322 35.72451883 20.12057389 48.38012695 36.70751953 C56.73109439 48.21138637 68 67.65209487 68 82 C67.34 82 66.68 82 66 82 C65.5153125 81.00742187 65.030625 80.01484375 64.53125 78.9921875 C62.3931153 74.64146374 60.20838062 70.31545043 58 66 C57.68498535 65.38157227 57.3699707 64.76314453 57.04541016 64.12597656 C49.58009244 49.68089025 36.55387872 29.66071983 21 23 C21 22.34 21 21.68 21 21 C19.89748901 20.58790283 19.89748901 20.58790283 18.77270508 20.16748047 C16.17658423 19.07435289 13.99386853 17.85088807 11.63671875 16.3203125 C10.83169922 15.80339844 10.02667969 15.28648437 9.19726562 14.75390625 C8.36904297 14.21636719 7.54082031 13.67882812 6.6875 13.125 C0.92256645 9.3848458 -4.79189828 5.95759967 -11 3 C-11 2.01 -11 1.02 -11 0 C-7.18243176 -1.37432457 -3.92744671 -0.67975039 0 0 Z " fill="#090707" transform="translate(268,223)"/>
<path d="M0 0 C1.87802596 5.41322643 -0.61996248 10.33895897 -2.3125 15.5625 C-2.67351807 16.67842529 -3.03453613 17.79435059 -3.40649414 18.9440918 C-8.49760215 34.08751299 -15.70147586 47.75166922 -26 60 C-26.77988281 60.94230469 -27.55976563 61.88460937 -28.36328125 62.85546875 C-34.25853587 69.67215073 -40.63773567 74.87677482 -48 80 C-48.66 79.67 -49.32 79.34 -50 79 C-48.38405168 76.95880212 -46.7143618 74.95927063 -45 73 C-44.34 73 -43.68 73 -43 73 C-43 72.34 -43 71.68 -43 71 C-42.34 71 -41.68 71 -41 71 C-40.7421875 70.42894531 -40.484375 69.85789062 -40.21875 69.26953125 C-38.88228071 66.78078555 -37.32032738 64.84727367 -35.5 62.6875 C-27.79414088 53.1850107 -21.18684224 43.08098114 -16 32 C-14.85517431 29.77031567 -13.7092547 27.54119283 -12.5625 25.3125 C-9.666834 19.57163713 -7.21089068 13.76319881 -5.04125977 7.71020508 C-4.4419114 6.10743639 -3.72901254 4.54810421 -3 3 C-2.01 2.67 -1.02 2.34 0 2 C0 1.34 0 0.68 0 0 Z " fill="#040302" transform="translate(341,133)"/>
<path d="M0 0 C1.87802596 5.41322643 -0.61996248 10.33895897 -2.3125 15.5625 C-2.67351807 16.67842529 -3.03453613 17.79435059 -3.40649414 18.9440918 C-9.2333724 36.27605011 -17.8119094 52.15714737 -31 65 C-31 60.70091749 -29.2851319 58.62932713 -27 55 C-26.01 54.505 -26.01 54.505 -25 54 C-23.87775145 52.11986894 -23.87775145 52.11986894 -22.875 49.9375 C-22.52179688 49.20402344 -22.16859375 48.47054687 -21.8046875 47.71484375 C-21.53914063 47.14894531 -21.27359375 46.58304688 -21 46 C-20.34 46 -19.68 46 -19 46 C-18.938125 44.824375 -18.938125 44.824375 -18.875 43.625 C-17.64255693 38.51916443 -15.16794644 34.18452627 -12 30 C-11.01 29.67 -10.02 29.34 -9 29 C-8.835 27.741875 -8.67 26.48375 -8.5 25.1875 C-8.36078125 24.12595703 -8.36078125 24.12595703 -8.21875 23.04296875 C-7.946767 20.84528294 -7.946767 20.84528294 -8 18 C-7.31588745 14.38285318 -5.86994269 11.12909559 -4.4375 7.75 C-3.98246094 6.67234375 -3.52742188 5.5946875 -3.05859375 4.484375 C-2.70925781 3.66453125 -2.35992187 2.8446875 -2 2 C-1.34 2 -0.68 2 0 2 C0 1.34 0 0.68 0 0 Z " fill="#170E0D" transform="translate(341,133)"/>
<path d="M0 0 C0.495 0.99 0.495 0.99 1 2 C2.65 2 4.3 2 6 2 C-1.15112274 10.8448097 -9.24713814 17.73496603 -18.75 23.9375 C-19.47098877 24.41026367 -20.19197754 24.88302734 -20.93481445 25.37011719 C-24.85639833 27.86694807 -28.47346762 29.75449188 -33 31 C-31.72967411 27.18902234 -30.48097549 26.85992125 -27.0625 24.875 C-21.79621577 21.66435413 -17.44082913 17.98249064 -12.99609375 13.72265625 C-11 12 -11 12 -9 12 C-8.61714844 11.14148438 -8.61714844 11.14148438 -8.2265625 10.265625 C-6.86912841 7.75826267 -5.28025896 5.8669544 -3.375 3.75 C-2.74335937 3.04359375 -2.11171875 2.3371875 -1.4609375 1.609375 C-0.97882813 1.07828125 -0.49671875 0.5471875 0 0 Z " fill="#120B09" transform="translate(85,109)"/>
<path d="M0 0 C0.66 0.33 1.32 0.66 2 1 C2.51489258 2.97094727 2.51489258 2.97094727 2.89453125 5.56640625 C3.04293457 6.5198291 3.19133789 7.47325195 3.34423828 8.45556641 C3.49876465 9.48085449 3.65329102 10.50614258 3.8125 11.5625 C5.5521072 22.35007381 7.91224347 32.62719358 12.1484375 42.7421875 C13 45 13 45 13 48 C12.34 48 11.68 48 11 48 C3.05559084 25.19872014 3.05559084 25.19872014 2 16 C-1.8011917 17.90059585 -2.85456671 23.5790089 -4.1875 27.4375 C-4.5896875 28.7059375 -4.5896875 28.7059375 -5 30 C-6.35951856 27.28096288 -5.7265536 25.83332523 -5.125 22.875 C-4.46877738 19.5373909 -3.88333339 16.26081622 -3.5625 12.875 C-2.9044297 8.34162684 -1.57715715 4.28510621 0 0 Z " fill="#C5867F" transform="translate(133,14)"/>
<path d="M0 0 C0 0.33 0 0.66 0 1 C-1.98 1 -3.96 1 -6 1 C-6 1.66 -6 2.32 -6 3 C-5.195625 3.09474609 -5.195625 3.09474609 -4.375 3.19140625 C1.6549695 4.13358898 6.94359413 6.06095268 12.5 8.5 C13.20640625 8.80881104 13.9128125 9.11762207 14.640625 9.43579102 C17.49085986 10.71970858 19.77138886 11.77138886 22 14 C20.68 14 19.36 14 18 14 C17.67 14.99 17.34 15.98 17 17 C16.16855469 16.4946875 15.33710938 15.989375 14.48046875 15.46875 C13.39378906 14.8190625 12.30710937 14.169375 11.1875 13.5 C10.10855469 12.8503125 9.02960938 12.200625 7.91796875 11.53125 C5.10648176 9.76766436 5.10648176 9.76766436 2 10 C-0.28113516 8.8864197 -2.47790617 7.74005374 -4.6875 6.5 C-5.29400391 6.16613281 -5.90050781 5.83226562 -6.52539062 5.48828125 C-8.02003231 4.664463 -9.51043671 3.83296549 -11 3 C-11 2.01 -11 1.02 -11 0 C-7.18243176 -1.37432457 -3.92744671 -0.67975039 0 0 Z " fill="#110D0B" transform="translate(268,223)"/>
<path d="M0 0 C0.66 0 1.32 0 2 0 C2.22550537 0.72888428 2.45101074 1.45776855 2.68334961 2.20874023 C6.89085083 15.66871579 11.13281951 28.52593973 18.25 40.7421875 C19.80501426 43.63701315 20.60702274 45.77021812 21 49 C16.54271189 45.32145648 14.57253995 40.56454982 12.1875 35.4375 C11.7538916 34.51453125 11.3202832 33.5915625 10.87353516 32.640625 C7.96691219 26.34884314 5.30096488 19.99202769 2.875 13.5 C2.58004639 12.71810303 2.28509277 11.93620605 1.98120117 11.13061523 C0.60173866 7.30232315 -0.37733907 4.13432375 0 0 Z " fill="#C48880" transform="translate(347,139)"/>
<path d="M0 0 C2.97932935 3.48930465 4.54739251 7.39716735 6.1875 11.625 C6.46013672 12.305625 6.73277344 12.98625 7.01367188 13.6875 C9 18.72550517 9 18.72550517 9 21 C7.02 20.34 5.04 19.68 3 19 C2.67 17.35 2.34 15.7 2 14 C1.34 14 0.68 14 0 14 C-2.4606443 8.53190155 -1.71084699 5.51272919 0 0 Z " fill="#130F0D" transform="translate(111,215)"/>
<path d="M0 0 C0 0.99 0 1.98 0 3 C0.99 4.485 0.99 4.485 2 6 C-3.4511097 11.03432465 -8.84108352 15.84942585 -15 20 C-15.66 19.67 -16.32 19.34 -17 19 C-15.38405168 16.95880212 -13.7143618 14.95927063 -12 13 C-11.34 13 -10.68 13 -10 13 C-10 12.34 -10 11.68 -10 11 C-9.34 11 -8.68 11 -8 11 C-7.73445313 10.41734375 -7.46890625 9.8346875 -7.1953125 9.234375 C-5.96697004 6.93825772 -4.59685061 5.19643982 -2.875 3.25 C-2.33617187 2.63640625 -1.79734375 2.0228125 -1.2421875 1.390625 C-0.83226562 0.93171875 -0.42234375 0.4728125 0 0 Z " fill="#201411" transform="translate(308,193)"/>
<path d="M0 0 C2.475 0.495 2.475 0.495 5 1 C5 1.66 5 2.32 5 3 C5.70511719 3.2475 6.41023438 3.495 7.13671875 3.75 C10.36887443 5.16103659 12.96328902 6.9250726 15.8125 9 C16.78832031 9.70125 17.76414062 10.4025 18.76953125 11.125 C19.50558594 11.74375 20.24164063 12.3625 21 13 C21 13.66 21 14.32 21 15 C21.804375 15.268125 22.60875 15.53625 23.4375 15.8125 C24.283125 16.204375 25.12875 16.59625 26 17 C26.33 17.99 26.66 18.98 27 20 C27.66 20 28.32 20 29 20 C29 20.66 29 21.32 29 22 C29.804375 22.2475 30.60875 22.495 31.4375 22.75 C34 24 34 24 34.8125 26.125 C34.874375 26.74375 34.93625 27.3625 35 28 C34.34 28 33.68 28 33 28 C33 27.34 33 26.68 33 26 C32.44699219 25.76796875 31.89398438 25.5359375 31.32421875 25.296875 C28.38271848 23.65556728 26.25098141 21.57236325 23.8125 19.25 C19.63319591 15.36279781 15.46640079 12.09884741 10.58203125 9.15625 C10.05996094 8.7746875 9.53789063 8.393125 9 8 C9 7.34 9 6.68 9 6 C8.2575 5.7525 7.515 5.505 6.75 5.25 C3.79875938 3.90852699 2.15185026 2.39094474 0 0 Z " fill="#020100" transform="translate(48,161)"/>
<path d="M0 0 C1.11378736 3.31822704 0.87728255 5.24820779 -0.21484375 8.546875 C-0.48876953 9.39121094 -0.76269531 10.23554688 -1.04492188 11.10546875 C-1.48674805 12.41451172 -1.48674805 12.41451172 -1.9375 13.75 C-2.22818359 14.63816406 -2.51886719 15.52632812 -2.81835938 16.44140625 C-3.53639318 18.63082079 -4.26385523 20.81662189 -5 23 C-7.78189357 17.47484034 -7.78189357 17.47484034 -8 15 C-6.78515625 11.765625 -6.78515625 11.765625 -5.0625 8.25 C-4.21365234 6.49429688 -4.21365234 6.49429688 -3.34765625 4.703125 C-2.90292969 3.81109375 -2.45820313 2.9190625 -2 2 C-1.34 2 -0.68 2 0 2 C0 1.34 0 0.68 0 0 Z " fill="#110A09" transform="translate(341,133)"/>
<path d="M0 0 C2.7979391 4.19690865 3.53792904 8.56738028 4.6875 13.4375 C4.92533203 14.39205078 5.16316406 15.34660156 5.40820312 16.33007812 C5.62798828 17.25111328 5.84777344 18.17214844 6.07421875 19.12109375 C6.27619873 19.9608374 6.47817871 20.80058105 6.6862793 21.66577148 C7.01400876 24.10423171 6.76310434 25.68129828 6 28 C6 27.34 6 26.68 6 26 C5.34 26 4.68 26 4 26 C3.47007308 24.54494642 2.9513211 23.08581873 2.4375 21.625 C2.14746094 20.81289063 1.85742188 20.00078125 1.55859375 19.1640625 C1 17 1 17 2 15 C2.04022391 12.6670134 2.04320247 10.33293334 2 8 C1.01 7.67 0.02 7.34 -1 7 C-0.67 4.69 -0.34 2.38 0 0 Z " fill="#211312" transform="translate(120,237)"/>
<path d="M0 0 C0.66 0 1.32 0 2 0 C0.90109517 6.91663627 -0.56569185 13.42736799 -3 20 C-4.32 19.67 -5.64 19.34 -7 19 C-6.53563753 14.35637534 -5.13048694 10.9608498 -2.98828125 6.90234375 C-1.82375929 4.66075405 -0.88649101 2.36397603 0 0 Z " fill="#1A0E0F" transform="translate(128,31)"/>
<path d="M0 0 C0.66 0.33 1.32 0.66 2 1 C-4.04694796 7.65164276 -13.19017869 11.60897558 -22 13 C-25 12.625 -25 12.625 -27 12 C-24.20317917 10.49988701 -21.566148 9.54719848 -18.5 8.75 C-12.53647852 7.0258224 -4.46881094 4.46881094 0 0 Z " fill="#8B6A62" transform="translate(290,211)"/>
<path d="M0 0 C-0.08768248 1.5843317 -0.19587329 3.16753567 -0.3125 4.75 C-0.37050781 5.63171875 -0.42851563 6.5134375 -0.48828125 7.421875 C-1.0641181 10.32303774 -2.07596148 11.79225607 -4 14 C-5.32 13.01 -6.64 12.02 -8 11 C-7.60246179 9.53633658 -7.18118616 8.0791065 -6.75 6.625 C-6.51796875 5.81289063 -6.2859375 5.00078125 -6.046875 4.1640625 C-4.80598155 1.59893201 -3.01894546 0 0 0 Z " fill="#0B0706" transform="translate(124,49)"/>
<path d="M0 0 C0.66 1.32 1.32 2.64 2 4 C-0.41293054 5.48557291 -2.8299747 6.96356592 -5.25 8.4375 C-5.93191406 8.85837891 -6.61382812 9.27925781 -7.31640625 9.71289062 C-7.98027344 10.11572266 -8.64414062 10.51855469 -9.328125 10.93359375 C-9.9355957 11.30540771 -10.54306641 11.67722168 -11.16894531 12.06030273 C-13.09515872 13.04883545 -14.88694504 13.55740065 -17 14 C-15.70810156 10.12430467 -14.2057271 9.63686025 -10.75 7.5625 C-6.93419775 5.25754918 -3.43189885 2.84947806 0 0 Z " fill="#2D1C17" transform="translate(69,126)"/>
<path d="M0 0 C0.99 0.33 1.98 0.66 3 1 C1.64475824 6.42096702 -0.36634013 11.0778687 -3 16 C-3.33 14.68 -3.66 13.36 -4 12 C-4.66 12 -5.32 12 -6 12 C-4.68139111 7.38486888 -2.78644563 3.90102388 0 0 Z " fill="#120E0D" transform="translate(116,65)"/>
<path d="M0 0 C0.99 0 1.98 0 3 0 C3.38855926 2.4568901 3.76130088 4.91441833 4.125 7.375 C4.23714844 8.07367188 4.34929687 8.77234375 4.46484375 9.4921875 C4.72816466 11.31787914 4.8718116 13.1598762 5 15 C4.34 15.66 3.68 16.32 3 17 C2.34 14.69 1.68 12.38 1 10 C0.67 10.66 0.34 11.32 0 12 C-0.66 12 -1.32 12 -2 12 C-2.33 12.66 -2.66 13.32 -3 14 C-2.28547412 9.23649415 -1.20465156 4.65798604 0 0 Z " fill="#A27A6E" transform="translate(343,121)"/>
<path d="M0 0 C0.33 0.66 0.66 1.32 1 2 C2.32 1.67 3.64 1.34 5 1 C1.77498471 4.59358847 -0.14790101 6.52662449 -5 7 C-6.093125 7.185625 -7.18625 7.37125 -8.3125 7.5625 C-9.199375 7.706875 -10.08625 7.85125 -11 8 C-10.81640625 6.140625 -10.81640625 6.140625 -10 4 C-7.71484375 2.734375 -7.71484375 2.734375 -4.9375 1.75 C-4.01839844 1.41484375 -3.09929688 1.0796875 -2.15234375 0.734375 C-1.44207031 0.49203125 -0.73179688 0.2496875 0 0 Z " fill="#C59790" transform="translate(51,138)"/>
<path d="M0 0 C0.66 0.33 1.32 0.66 2 1 C2.4140625 3.72265625 2.4140625 3.72265625 2.625 7.0625 C2.69976562 8.16722656 2.77453125 9.27195312 2.8515625 10.41015625 C2.90054688 11.26480469 2.94953125 12.11945312 3 13 C2.01 13.495 2.01 13.495 1 14 C0.67 13.01 0.34 12.02 0 11 C-0.66 12.98 -1.32 14.96 -2 17 C-2.66 17 -3.32 17 -4 17 C-3.45018084 10.95198929 -2.09570426 5.69398894 0 0 Z " fill="#BF857D" transform="translate(133,14)"/>
<path d="M0 0 C3.0132707 3.45509925 4.31615804 7.26618093 5.6875 11.5625 C5.91244141 12.23474609 6.13738281 12.90699219 6.36914062 13.59960938 C7.32199622 16.5161005 8 18.91234191 8 22 C7.34 22 6.68 22 6 22 C2.89959539 16.57789706 1.54519231 12.21519229 1 6 C0.67 5.67 0.34 5.34 0 5 C-0.04063832 3.33382885 -0.042721 1.66611905 0 0 Z " fill="#221814" transform="translate(328,283)"/>
<path d="M0 0 C2.59037598 3.20490963 4.37943156 6.55350453 6.1875 10.25 C6.71730469 11.32765625 7.24710937 12.4053125 7.79296875 13.515625 C8.19128906 14.33546875 8.58960938 15.1553125 9 16 C8.34 16.33 7.68 16.66 7 17 C7 16.34 7 15.68 7 15 C6.401875 14.773125 5.80375 14.54625 5.1875 14.3125 C2.26372999 12.55823799 1.36152537 11.13150836 0 8 C-0.23738786 5.27761579 -0.13944193 2.742358 0 0 Z " fill="#1B1211" transform="translate(319,265)"/>
<path d="M0 0 C3.98069267 2.87494471 6.43571997 5.82117329 9 10 C7.625 11.5 7.625 11.5 6 13 C5.34 13 4.68 13 4 13 C4 12.01 4 11.02 4 10 C3.01 9.67 2.02 9.34 1 9 C0.67 6.03 0.34 3.06 0 0 Z " fill="#14100D" transform="translate(305,248)"/>
<path d="M0 0 C0.99079077 2.61374251 1.08200741 3.76558611 0.14453125 6.4453125 C-0.29503906 7.32960937 -0.73460937 8.21390625 -1.1875 9.125 C-3.69874219 14.33687974 -5.90656882 19.60853758 -8 25 C-8.66 25 -9.32 25 -10 25 C-8.07314988 16.27623901 -4.16288241 7.86322233 0 0 Z " fill="#C5867F" transform="translate(142,232)"/>
<path d="M0 0 C1.37562854 1.28965176 2.70766393 2.62689293 4 4 C4 4.66 4 5.32 4 6 C3.401875 6.020625 2.80375 6.04125 2.1875 6.0625 C-0.36793328 6.88151301 -0.36793328 6.88151301 -1.625 10.1875 C-2.10278462 11.45114895 -2.56112129 12.72231761 -3 14 C-3.391875 15.134375 -3.78375 16.26875 -4.1875 17.4375 C-4.5896875 18.7059375 -4.5896875 18.7059375 -5 20 C-6.72210342 16.55579316 -4.70437462 12.95407953 -3.625 9.4375 C-3.39039063 8.64408203 -3.15578125 7.85066406 -2.9140625 7.03320312 C-1.14368704 1.14368704 -1.14368704 1.14368704 0 0 Z " fill="#BE907F" transform="translate(133,24)"/>
<path d="M0 0 C0.66 0 1.32 0 2 0 C2.99 2.97 3.98 5.94 5 9 C5.66 8.01 6.32 7.02 7 6 C7.66 6 8.32 6 9 6 C8.34 8.64 7.68 11.28 7 14 C6.01 14 5.02 14 4 14 C2.68373308 10.38026598 2 7.90432869 2 4 C1.34 4 0.68 4 0 4 C0 2.68 0 1.36 0 0 Z " fill="#A46D62" transform="translate(335,305)"/>
<path d="M0 0 C0 0.33 0 0.66 0 1 C-1.98 1 -3.96 1 -6 1 C-6 1.66 -6 2.32 -6 3 C-3.36 3.33 -0.72 3.66 2 4 C2 4.33 2 4.66 2 5 C-5.18501171 6.33957845 -5.18501171 6.33957845 -9 4.75 C-9.66 4.1725 -10.32 3.595 -11 3 C-11 2.01 -11 1.02 -11 0 C-7.18243176 -1.37432457 -3.92744671 -0.67975039 0 0 Z " fill="#43362B" transform="translate(268,223)"/>
<path d="M0 0 C5.41798672 0.69165788 10.6822785 1.75799248 16 3 C12.12880874 5.10924863 9.44726123 5.54615489 5 5 C2.0625 2.5 2.0625 2.5 0 0 Z " fill="#231914" transform="translate(26,149)"/>
<path d="M0 0 C0.66 0 1.32 0 2 0 C2.38671875 0.73605469 2.7734375 1.47210938 3.171875 2.23046875 C6.42388919 8.36104313 6.42388919 8.36104313 10.4375 14 C11.2109375 14.99 11.2109375 14.99 12 16 C11.67 16.99 11.34 17.98 11 19 C0 3.64325843 0 3.64325843 0 0 Z " fill="#C9877F" transform="translate(160,94)"/>
<path d="M0 0 C3.90371537 1.30123846 4.8170602 3.11715718 7.1875 6.4375 C7.90292969 7.42621094 8.61835938 8.41492188 9.35546875 9.43359375 C11 12 11 12 11 14 C10.01 14 9.02 14 8 14 C6.2109375 11.69921875 6.2109375 11.69921875 4.375 8.6875 C3.76398438 7.70136719 3.15296875 6.71523438 2.5234375 5.69921875 C1 3 1 3 0 0 Z " fill="#040101" transform="translate(314,268)"/>
<path d="M0 0 C0 0.99 0 1.98 0 3 C-2.046875 4.97265625 -2.046875 4.97265625 -4.75 7.0625 C-5.63171875 7.75472656 -6.5134375 8.44695312 -7.421875 9.16015625 C-9.57652425 10.6977923 -11.59562201 11.91578282 -14 13 C-14 12.34 -14 11.68 -14 11 C-13.34 11 -12.68 11 -12 11 C-11.67 10.01 -11.34 9.02 -11 8 C-6.54285714 4 -6.54285714 4 -4 4 C-3.67 3.01 -3.34 2.02 -3 1 C-2.01 0.67 -1.02 0.34 0 0 Z " fill="#C68C83" transform="translate(388,245)"/>
<path d="M0 0 C0.33 0 0.66 0 1 0 C1.34833144 4.87664009 0.41685712 7.77050005 -2 12 C-4.89932357 9.60490662 -5.50168276 7.68754757 -6 4 C-5.67 4.66 -5.34 5.32 -5 6 C-4.01 5.67 -3.02 5.34 -2 5 C-0.78130071 2.49552484 -0.78130071 2.49552484 0 0 Z " fill="#966661" transform="translate(131,259)"/>
<path d="M0 0 C1.32 0 2.64 0 4 0 C2.48328036 4.55015893 -1.16891053 6.50057264 -5 9 C-5.66 8.67 -6.32 8.34 -7 8 C-5.38405168 5.95880212 -3.7143618 3.95927063 -2 2 C-1.34 2 -0.68 2 0 2 C0 1.34 0 0.68 0 0 Z " fill="#2F1D18" transform="translate(298,204)"/>
<path d="M0 0 C1 2 1 2 0.4765625 3.796875 C-1.65624497 6.97915916 -4.57680763 9.00944835 -7.625 11.25 C-8.54152344 11.93835938 -8.54152344 11.93835938 -9.4765625 12.640625 C-10.9790792 13.76751252 -12.48884409 14.88472437 -14 16 C-14.66 15.67 -15.32 15.34 -16 15 C-15.26394531 14.41992188 -14.52789062 13.83984375 -13.76953125 13.2421875 C-8.64641788 9.14098974 -3.92415673 5.27731422 0 0 Z " fill="#B88D85" transform="translate(313,194)"/>
<path d="M0 0 C0.33 1.32 0.66 2.64 1 4 C0.01 4.495 0.01 4.495 -1 5 C-0.79375 5.5775 -0.5875 6.155 -0.375 6.75 C0.08661261 9.51967567 -0.57055055 10.64561267 -2 13 C-2.66 13 -3.32 13 -4 13 C-5.14947895 9.44706507 -5.0868937 8.20023331 -3.5625 4.6875 C-3.046875 3.800625 -2.53125 2.91375 -2 2 C-1.34 2 -0.68 2 0 2 C0 1.34 0 0.68 0 0 Z " fill="#090804" transform="translate(334,149)"/>
<path d="M0 0 C1.46726798 3.81489674 0.43336419 6.29011622 -1 10 C-1.99 10 -2.98 10 -4 10 C-4.66 11.32 -5.32 12.64 -6 14 C-5.33501617 9.61110675 -3.81242323 6.0188515 -2 2 C-1.34 2 -0.68 2 0 2 C0 1.34 0 0.68 0 0 Z " fill="#32221E" transform="translate(341,133)"/>
<path d="M0 0 C0 0.66 0 1.32 0 2 C-2.265625 3.62109375 -2.265625 3.62109375 -5.25 5.4375 C-8.62029686 7.50158392 -11.88019387 9.57100809 -15 12 C-15.66 11.67 -16.32 11.34 -17 11 C-15.68 10.34 -14.36 9.68 -13 9 C-13 8.34 -13 7.68 -13 7 C-11.05017465 5.59431196 -9.04049422 4.2704964 -7 3 C-5.63875 2.13375 -5.63875 2.13375 -4.25 1.25 C-2 0 -2 0 0 0 Z " fill="#C68A80" transform="translate(196,172)"/>
<path d="M0 0 C0.33 0.99 0.66 1.98 1 3 C-2.47325181 4.1577506 -5.36067448 4.06866652 -9 4 C-8.67 4.99 -8.34 5.98 -8 7 C-9.32 6.67 -10.64 6.34 -12 6 C-12 5.01 -12 4.02 -12 3 C-8.04 2.01 -4.08 1.02 0 0 Z " fill="#8E736D" transform="translate(35,144)"/>
<path d="M0 0 C0.66 0.99 1.32 1.98 2 3 C2.33 2.34 2.66 1.68 3 1 C3 1.99 3 2.98 3 4 C-1.34285714 8 -1.34285714 8 -4 8 C-3.50168276 4.31245243 -2.89932357 2.39509338 0 0 Z " fill="#1C110D" transform="translate(74,121)"/>
<path d="M0 0 C2.52588702 2.36292656 3.88820837 3.66462511 5 7 C2.625 7.625 2.625 7.625 0 8 C-0.66 7.34 -1.32 6.68 -2 6 C-1.64644564 3.73725212 -1.02455574 2.04911148 0 0 Z " fill="#171213" transform="translate(314,258)"/>
<path d="M0 0 C0.99 0.33 1.98 0.66 3 1 C2.34 1 1.68 1 1 1 C0.79375 1.66 0.5875 2.32 0.375 3 C-1.51152871 7.11606263 -4.20567979 10.4587703 -7 14 C-7.66 13.67 -8.32 13.34 -9 13 C-8.51789063 12.31292969 -8.03578125 11.62585938 -7.5390625 10.91796875 C-6.90742188 10.01691406 -6.27578125 9.11585938 -5.625 8.1875 C-4.99851563 7.29417969 -4.37203125 6.40085938 -3.7265625 5.48046875 C-2.46449761 3.66732122 -1.22541192 1.83811789 0 0 Z " fill="#C68780" transform="translate(161,201)"/>
<path d="M0 0 C0 2.83967231 -0.40267181 5.23735711 -1 8 C-1.99 8.33 -2.98 8.66 -4 9 C-4.66 8.67 -5.32 8.34 -6 8 C-5.8125 5.6875 -5.8125 5.6875 -5 3 C-2.4375 1.1875 -2.4375 1.1875 0 0 Z " fill="#070606" transform="translate(92,103)"/>
<path d="M0 0 C3.28254162 3.73530598 5.37279665 7.2896745 7 12 C6.57421875 14.21484375 6.57421875 14.21484375 6 16 C4.9901527 14.08850332 3.99245505 12.17058431 3 10.25 C2.443125 9.18265625 1.88625 8.1153125 1.3125 7.015625 C0 4 0 4 0 0 Z " fill="#C68680" transform="translate(148,69)"/>
<path d="M0 0 C0.66 0 1.32 0 2 0 C1.34 3.63 0.68 7.26 0 11 C-0.66 10.67 -1.32 10.34 -2 10 C-2.66 10.66 -3.32 11.32 -4 12 C-3.45660208 7.43545749 -2.20536179 4.0271824 0 0 Z " fill="#3A2422" transform="translate(128,31)"/>
<path d="M0 0 C0.99 0.33 1.98 0.66 3 1 C4.8621508 5.7300622 5.25833731 10.96242242 5 16 C2.79334596 12.69001895 2.21737905 10.17978564 1.375 6.3125 C1.11460938 5.13300781 0.85421875 3.95351562 0.5859375 2.73828125 C0.39257812 1.83464844 0.19921875 0.93101562 0 0 Z " fill="#B98E87" transform="translate(121,239)"/>
<path d="M0 0 C3.96996957 1.32332319 5.76036395 4.0089399 8.14453125 7.24609375 C9 9 9 9 8 12 C7.67 11.01 7.34 10.02 7 9 C6.34 9 5.68 9 5 9 C3.7109375 7.5390625 3.7109375 7.5390625 2.375 5.625 C1.92898438 4.99851563 1.48296875 4.37203125 1.0234375 3.7265625 C0 2 0 2 0 0 Z " fill="#C19087" transform="translate(372,195)"/>
<path d="M0 0 C0.66 0 1.32 0 2 0 C2.38854209 2.28940956 2.7604628 4.58164574 3.125 6.875 C3.33382813 8.15117187 3.54265625 9.42734375 3.7578125 10.7421875 C3.83773438 11.81726563 3.91765625 12.89234375 4 14 C3.34 14.66 2.68 15.32 2 16 C0.61470179 10.54538831 -0.2396943 5.63281599 0 0 Z " fill="#BA837B" transform="translate(344,122)"/>
<path d="M0 0 C0.66 0.33 1.32 0.66 2 1 C-0.74423966 3.94751667 -3.36219655 6.22773678 -7 8 C-7.99 7.67 -8.98 7.34 -10 7 C-9.34 7 -8.68 7 -8 7 C-8 6.34 -8 5.68 -8 5 C-6.3203125 3.67578125 -6.3203125 3.67578125 -4.125 2.3125 C-3.40570313 1.85488281 -2.68640625 1.39726562 -1.9453125 0.92578125 C-0.98238281 0.46751953 -0.98238281 0.46751953 0 0 Z " fill="#794E47" transform="translate(290,211)"/>
<path d="M0 0 C0.66 0.66 1.32 1.32 2 2 C1.625 5.125 1.625 5.125 1 8 C-0.65 8.33 -2.3 8.66 -4 9 C-2.94124926 5.59687262 -1.99097846 2.98646769 0 0 Z " fill="#0B0B08" transform="translate(327,166)"/>
<path d="M0 0 C1.2989839 0.90626784 2.58893167 1.82549537 3.875 2.75 C4.59429687 3.26046875 5.31359375 3.7709375 6.0546875 4.296875 C8.08570565 6.07503547 8.97855012 7.52701607 10 10 C9.34 10 8.68 10 8 10 C8 9.34 8 8.68 8 8 C6.68 7.67 5.36 7.34 4 7 C4 6.34 4 5.68 4 5 C2.68 4.34 1.36 3.68 0 3 C0 2.01 0 1.02 0 0 Z " fill="#C98B85" transform="translate(191,134)"/>
<path d="M0 0 C0.66 0 1.32 0 2 0 C2.6875 2.25 2.6875 2.25 3 5 C1.5625 7.3125 1.5625 7.3125 0 9 C-1.125 7.3125 -1.125 7.3125 -2 5 C-1.125 2.25 -1.125 2.25 0 0 Z " fill="#1A1314" transform="translate(120,54)"/>
<path d="M0 0 C0.99 0 1.98 0 3 0 C5.21854707 4.62197306 6.38281159 7.76824163 6 13 C3.59195432 10.59195432 2.99231241 8.57796225 1.875 5.375 C1.52179688 4.37210938 1.16859375 3.36921875 0.8046875 2.3359375 C0.53914063 1.56507813 0.27359375 0.79421875 0 0 Z " fill="#BB9088" transform="translate(113,218)"/>
<path d="M0 0 C0.66 0.66 1.32 1.32 2 2 C0.68 4.31 -0.64 6.62 -2 9 C-2.66 9 -3.32 9 -4 9 C-3.46930939 5.17902761 -2.50298434 2.93828597 0 0 Z " fill="#BC8D87" transform="translate(105,93)"/>
<path d="M0 0 C0.33 0.99 0.66 1.98 1 3 C-3.455 4.485 -3.455 4.485 -8 6 C-7.67 5.01 -7.34 4.02 -7 3 C-3.4375 1.3125 -3.4375 1.3125 0 0 Z " fill="#8A685C" transform="translate(51,138)"/>
<path d="M0 0 C0 4.38968456 -2.12805101 5.76905739 -5 9 C-6.32 8.67 -7.64 8.34 -9 8 C-8.43410156 7.50628906 -7.86820312 7.01257813 -7.28515625 6.50390625 C-6.55167969 5.86324219 -5.81820312 5.22257812 -5.0625 4.5625 C-4.33160156 3.92441406 -3.60070312 3.28632812 -2.84765625 2.62890625 C-1.87860647 1.77458541 -0.91348825 0.91348825 0 0 Z " fill="#BB9189" transform="translate(88,114)"/>
<path d="M0 0 C0.99 0.66 1.98 1.32 3 2 C1.92598892 4.91517292 1.22189824 6.77810176 -1 9 C-1.625 6.1875 -1.625 6.1875 -2 3 C-1.34 2.01 -0.68 1.02 0 0 Z " fill="#1B1110" transform="translate(109,79)"/>
<path d="M0 0 C0.66 0 1.32 0 2 0 C1.34 2.64 0.68 5.28 0 8 C-0.99 8 -1.98 8 -3 8 C-3.33 7.01 -3.66 6.02 -4 5 C-3.01 5 -2.02 5 -1 5 C-0.67 3.35 -0.34 1.7 0 0 Z " fill="#B17F71" transform="translate(342,311)"/>
<path d="M0 0 C0.66 0.33 1.32 0.66 2 1 C-0.475 5.455 -0.475 5.455 -3 10 C-3.66 9.67 -4.32 9.34 -5 9 C-4.3566152 7.686298 -3.71021785 6.37407102 -3.0625 5.0625 C-2.70285156 4.33160156 -2.34320313 3.60070312 -1.97265625 2.84765625 C-1 1 -1 1 0 0 Z " fill="#C18983" transform="translate(148,221)"/>
<path d="M0 0 C0 3 0 3 -1.53125 4.60546875 C-2.1809375 5.12753906 -2.830625 5.64960938 -3.5 6.1875 C-4.1496875 6.71730469 -4.799375 7.24710938 -5.46875 7.79296875 C-5.9740625 8.19128906 -6.479375 8.58960938 -7 9 C-5.64978174 4.58110387 -3.73884332 2.65654657 0 0 Z " fill="#C38A81" transform="translate(171,191)"/>
<path d="M0 0 C2.64 0.66 5.28 1.32 8 2 C8 2.66 8 3.32 8 4 C5.36 4 2.72 4 0 4 C0 2.68 0 1.36 0 0 Z " fill="#C7978E" transform="translate(225,154)"/>
<path d="M0 0 C0.66 0.33 1.32 0.66 2 1 C2 1.66 2 2.32 2 3 C-3.75 6 -3.75 6 -6 6 C-5 3 -5 3 -2.5625 1.25 C-1.716875 0.8375 -0.87125 0.425 0 0 Z " fill="#583C36" transform="translate(58,134)"/>
<path d="M0 0 C1.125 1.625 1.125 1.625 2 4 C1.125 7.25 1.125 7.25 0 10 C-0.66 10 -1.32 10 -2 10 C-1.125 2.25 -1.125 2.25 0 0 Z " fill="#A87B65" transform="translate(131,21)"/>
<path d="M0 0 C2.12508244 3.18762365 2.5020163 5.26512223 3 9 C2.34 9 1.68 9 1 9 C-0.61949011 6.42786866 -1.04408751 5.32330841 -0.625 2.25 C-0.41875 1.5075 -0.2125 0.765 0 0 Z " fill="#422D25" transform="translate(333,296)"/>
<path d="M0 0 C0.33 0.99 0.66 1.98 1 3 C0.00390625 4.82421875 0.00390625 4.82421875 -1.4375 6.6875 C-1.91058594 7.31011719 -2.38367188 7.93273437 -2.87109375 8.57421875 C-3.24363281 9.04472656 -3.61617188 9.51523437 -4 10 C-4.33 9.01 -4.66 8.02 -5 7 C-4.00390625 5.17578125 -4.00390625 5.17578125 -2.5625 3.3125 C-2.08941406 2.68988281 -1.61632812 2.06726563 -1.12890625 1.42578125 C-0.75636719 0.95527344 -0.38382812 0.48476563 0 0 Z " fill="#C78780" transform="translate(363,269)"/>
<path d="M0 0 C0.66 0 1.32 0 2 0 C4.09230769 4.43076923 4.09230769 4.43076923 3.625 7.3125 C3.41875 7.869375 3.2125 8.42625 3 9 C3 8.34 3 7.68 3 7 C2.34 7 1.68 7 1 7 C0.67 4.69 0.34 2.38 0 0 Z " fill="#140C09" transform="translate(123,256)"/>
<path d="M0 0 C0.33 0.66 0.66 1.32 1 2 C-0.91522803 6.03205902 -1.85351878 6.92675939 -6 9 C-4.02 6.03 -2.04 3.06 0 0 Z " fill="#B28680" transform="translate(323,181)"/>
<path d="M0 0 C2.46800047 1.15173355 4.04783565 2.04783565 6 4 C5.67 4.99 5.34 5.98 5 7 C3.29115995 5.37660195 1.62553283 3.70680947 0 2 C0 1.34 0 0.68 0 0 Z " fill="#C68982" transform="translate(184,128)"/>
<path d="M0 0 C0.33 0 0.66 0 1 0 C1 1.98 1 3.96 1 6 C-0.98 6.99 -0.98 6.99 -3 8 C-1.125 2.25 -1.125 2.25 0 0 Z " fill="#090505" transform="translate(126,39)"/>
</svg>
