<?xml version="1.0" encoding="iso-8859-1"?>
<!-- Uploaded to: SVG Repo, www.svgrepo.com, Generator: SVG Repo Mixer Tools -->
<svg height="800px" width="800px" version="1.1" id="Layer_1" xmlns="http://www.w3.org/2000/svg" xmlns:xlink="http://www.w3.org/1999/xlink" 
	 viewBox="0 0 512 512" xml:space="preserve">
<path style="fill:#F26D76;" d="M256,333.913c-49.097,0-89.043-39.946-89.043-89.043s39.946-89.043,89.043-89.043
	s89.043,39.946,89.043,89.043S305.097,333.913,256,333.913z M256,0C114.867,0,0,114.866,0,256c0,47.75,13.244,92.494,36.063,130.894
	c9.795,16.362,21.369,31.499,34.394,45.19c7.903-2.226,15.693-6.233,21.927-12.466l19.59-19.59c6.343-6.344,17.362-6.344,23.595,0
	l19.59,19.59c9.462,9.461,22.038,14.581,35.396,14.581s25.933-5.12,35.394-14.581l19.59-19.59c2.783-2.783,6.567-4.341,10.462-4.563
	c4.785-0.445,9.683,1.113,13.133,4.563c16.807,16.807,29.609,34.17,54.985,34.17c13.358,0,25.934-5.12,35.396-14.581l19.59-19.59
	c5.899-5.899,16.584-7.123,24.375,0.779c3.785,3.784,7.456,7.68,11.019,11.241c8.348,8.57,16.696,15.918,27.492,19.59
	c10.908-11.576,20.815-24.153,29.384-37.621c25.71-39.847,40.626-87.151,40.626-138.017C512,114.866,397.133,0,256,0z"/>
<path style="fill:#E65C64;" d="M512,256c0,50.866-14.916,98.17-40.626,138.017c-8.569,13.468-18.477,26.045-29.384,37.621
	c-10.797-3.673-19.144-11.019-27.492-19.59c-3.563-3.561-7.234-7.457-11.019-11.241c-7.791-7.903-18.475-6.678-24.375-0.779
	l-19.591,19.588c-9.462,9.461-22.038,14.581-35.396,14.581c-25.376,0-38.178-17.363-54.985-34.17
	c-3.449-3.45-8.348-5.009-13.133-4.563v-61.551c49.084,0,89.044-39.958,89.044-89.043s-39.959-89.043-89.043-89.043V0
	C397.133,0,512,114.866,512,256z"/>
<path style="fill:#EDF0F2;" d="M200.348,122.435h-33.391c-9.217,0-16.696-7.473-16.696-16.696s7.479-16.696,16.696-16.696h33.391
	c9.217,0,16.696,7.473,16.696,16.696S209.565,122.435,200.348,122.435z"/>
<path style="fill:#D7EBFF;" d="M345.043,122.435h-33.391c-9.217,0-16.696-7.473-16.696-16.696s7.479-16.696,16.696-16.696h33.391
	c9.217,0,16.696,7.473,16.696,16.696S354.261,122.435,345.043,122.435z"/>
<path style="fill:#EDF0F2;" d="M111.304,222.609H77.913c-9.217,0-16.696-7.473-16.696-16.696s7.479-16.696,16.696-16.696h33.391
	c9.217,0,16.696,7.473,16.696,16.696S120.521,222.609,111.304,222.609z"/>
<path style="fill:#D7EBFF;" d="M434.087,222.609h-33.391c-9.217,0-16.696-7.473-16.696-16.696s7.479-16.696,16.696-16.696h33.391
	c9.217,0,16.696,7.473,16.696,16.696S443.304,222.609,434.087,222.609z"/>
<path style="fill:#EDF0F2;" d="M111.304,322.783H77.913c-9.217,0-16.696-7.473-16.696-16.696s7.479-16.696,16.696-16.696h33.391
	c9.217,0,16.696,7.473,16.696,16.696S120.521,322.783,111.304,322.783z"/>
<path style="fill:#D7EBFF;" d="M434.087,322.783h-33.391c-9.217,0-16.696-7.473-16.696-16.696s7.479-16.696,16.696-16.696h33.391
	c9.217,0,16.696,7.473,16.696,16.696S443.304,322.783,434.087,322.783z"/>
<path style="fill:#FFC033;" d="M469.481,396.021c-6.232,6.234-17.251,6.234-23.595,0l-9.685-9.795l-9.905-9.795
	c-9.462-9.461-22.038-14.692-35.396-14.692s-25.934,5.231-35.396,14.692l-19.59,19.588c-6.232,6.234-17.251,6.234-23.595,0
	l-19.588-19.588c-13.178-13.177-28.939-14.692-36.73-14.692s-24.932,5.565-34.06,14.692l-19.59,19.588
	c-6.232,6.234-17.251,6.234-23.595,0l-19.59-19.588c-9.462-9.461-22.038-14.692-35.396-14.692c-13.358,0-25.934,5.231-35.396,14.692
	L77.02,387.784l-8.237,8.237c-6.232,6.234-17.251,6.234-23.595,0l-9.126-9.127c9.795,16.362,21.369,31.499,34.394,45.19
	C117.092,481.28,182.983,512,256,512c73.239,0,139.242-30.943,185.99-80.362c10.908-11.576,20.815-24.153,29.384-37.621
	L469.481,396.021z"/>
<path style="fill:#F9A926;" d="M441.99,431.638c10.908-11.576,20.815-24.153,29.384-37.621l-1.892,2.003
	c-6.232,6.234-17.251,6.234-23.595,0l-9.686-9.795l-9.905-9.795c-9.462-9.461-22.038-14.692-35.396-14.692
	s-25.934,5.231-35.396,14.692l-19.59,19.588c-6.232,6.234-17.251,6.234-23.595,0l-19.588-19.588
	c-13.178-13.177-28.939-14.692-36.73-14.692V512C329.239,512,395.242,481.057,441.99,431.638z"/>
</svg>